<svg width="219" height="239" viewBox="0 0 219 239" fill="none" xmlns="http://www.w3.org/2000/svg">
<path id="Vector 4" d="M39.0864 147.188C48.838 139.579 61.7821 132.522 66.0541 131.601C74.5058 129.33 90.8192 136.563 90.356 150.999C86.6254 164.795 74.2939 167.589 67.1341 175.586C55.578 188.495 52.0758 209.674 67.5625 221.479C73.2497 225.814 80.9209 229.981 88.2588 227.775C96.938 225.167 98.6711 215.772 98.7375 207.833C98.8947 189.046 85.4527 161.099 103.084 146.383C108.173 142.135 116.039 141.716 121.859 144.641C129.652 148.558 133.112 156.282 136.28 163.899C138.926 170.259 143.673 186.14 153.18 184.624C158.427 183.788 161.776 176.875 162.78 172.264C165.986 157.537 146.489 142.997 138.164 134.39C133.78 129.859 119.567 118.539 122.611 110.432C124.64 105.026 131.925 104.307 136.728 104.42C155.814 104.871 173.982 112.976 193.154 111.652C198.805 111.262 206.881 110.393 208.457 103.619C209.617 98.6382 207.343 92.7284 203.567 89.4399C197.362 84.0367 189.316 83.6919 181.522 83.6459C169.97 83.5777 158.425 84.388 146.888 84.8522C141.263 85.0786 115.489 88.0276 121.5 76.0827C124.481 70.1576 131.725 68.4332 137.648 67.0667C146.924 64.9268 156.582 64.7698 166.042 64.1686C171.537 63.8194 178.142 63.9309 183.287 61.6503C189.388 58.9456 190.978 51.3326 190.428 45.2998C189.008 29.7215 171.845 13.9287 157.332 10.5972C150.509 9.03091 145.487 10.9532 144.82 18.4992C143.93 28.5733 146.164 38.646 144.123 48.7172C142.692 55.7837 138.108 61.7692 130.71 63.0063C124.074 64.1161 121.528 59.8374 122.945 53.8029C124.809 45.8648 129.464 38.6731 126.979 30.2349C125.222 24.2718 121.248 20.3092 116.2 16.9723C109.927 12.8259 101.248 8.18502 93.8042 12.3842C87.8629 15.7359 86.9949 21.5857 89.6461 27.3142C93.3175 35.2471 99.4332 41.5567 102.032 50.0959C104.583 58.4793 101.758 65.1549 95.8388 71.2805C91.7702 75.4912 83.7299 82.3399 78.0111 76.8679C73.462 72.5152 70.9942 65.1 68.2198 59.578C63.4696 50.1237 58.1789 40.2878 47.6591 36.3697C40.9209 33.8601 32.4598 34.3644 26.4529 38.4946C21.0661 42.1984 17.1091 50.1228 24.2474 54.4162C31.7242 58.9133 42.3577 58.2632 50.7209 58.7371C57.7553 59.1356 67.4171 60.4217 70.7658 67.7879C73.0097 72.7238 69.8827 78.5089 66.3656 81.9224C58.1322 89.9136 46.7051 89.4119 36.1402 89.9482C29.7325 90.2735 19.6427 90.9518 15.4457 96.6247C12.7975 100.204 10.4851 105.644 10.73 110.168C11.4992 124.377 32.9583 114.257 38.6523 110.857C48.4535 105.004 60.0653 97.1191 72.0643 101.155C77.4784 102.975 81.9538 108.288 79.4785 114.177C76.7116 120.76 69.751 122.83 63.441 124.253C53.581 126.475 42.8831 127.276 33.5816 131.469C27.0233 134.426 13.8513 143.591 21.4547 152.05C27.0943 158.325 34.5773 150.706 39.0864 147.188Z" fill="#415B68" stroke="#415B68" stroke-width="20" stroke-linecap="round"/>
</svg>
