<svg width="127" height="132" viewBox="0 0 127 132" fill="none" xmlns="http://www.w3.org/2000/svg">
<path d="M35.5809 52.0192C34.6835 51.2845 33.7861 50.5498 32.2633 46.8651C30.7404 43.1804 28.6193 36.5679 27.8121 32.0594C26.6285 25.4479 28.8171 21.6064 30.4178 18.3595C32.3603 14.4195 35.4004 11.0507 38.6464 8.66227C41.7303 6.39304 48.2285 7.72593 55.4311 10.2752C60.3923 12.0311 62.436 15.5604 64.2036 18.1085C66.1838 20.963 67.3012 25.7673 68.0849 31.0365C68.6679 34.9567 67.803 37.1715 67.3519 37.832C67.163 38.1085 66.656 37.8394 66.405 37.5512C66.1541 37.263 66.0725 36.8549 66.2345 36.2772C66.6207 34.8995 67.714 33.5548 69.3123 31.7081C71.9641 28.6441 76.2652 25.3196 80.6249 22.4364C86.4783 18.5653 93.0685 19.5284 98.396 20.4734C103.297 21.3428 107.244 26.836 110.848 32.2499C112.705 35.0384 113.036 41.9929 113.738 50.0253C114.378 57.3414 110.008 61.3999 106.139 64.8694C100.412 70.0048 95.511 69.6623 93.5147 69.5856C93.2549 69.5757 93.6717 68.8509 94.4505 68.517C98.6116 66.7324 102.888 68.752 106.764 70.6469C108.854 71.6683 110.969 73.8579 113.395 76.7349C116.038 79.8712 117.486 84.891 118.311 90.1194C118.909 93.9168 118.235 96.5376 117.417 99.0832C116.161 102.99 112.974 106.101 109.934 108.323C106.859 110.569 103.825 111.798 100.298 112.743C94.7233 114.237 90.144 114.525 87.9252 114.197C82.8648 113.449 79.5161 109.589 76.8351 104.407C73.3427 97.6558 74.641 95.8103 74.7634 95.3947C74.9935 94.6131 75.3827 97.2031 75.3011 98.2705C75.181 99.8423 73.4198 103.937 70.8685 109.169C69.4005 112.179 65.6869 115.324 60.7092 119.443C57.24 122.313 54.216 123.096 51.3434 123.714C47.3833 124.564 43.3435 124.338 39.8924 123.846C36.066 123.3 33.3634 122.196 31.7206 121.13C27.3618 118.301 26.0334 113.394 25.0347 109.221C23.8722 104.363 26.9976 99.2934 30.2485 95.4096C33.4304 91.6081 37.4647 89.4626 38.9912 88.4731C40.4664 87.5169 31.3288 88.4681 25.4648 87.3994C23.1823 86.9834 18.2338 84.2825 11.9322 80.74C8.90006 79.0354 8.30804 77.2594 7.81361 75.3298C6.47124 70.091 9.69245 65.3233 12.905 60.8173C14.8762 58.0525 18.5057 56.2346 21.7949 54.5054C24.7578 53.266 27.9815 52.4348 31.068 51.9401C32.3597 51.7718 33.0939 51.7718 34.592 52.2666" stroke="#092EFF" stroke-width="15" stroke-linecap="round"/>
</svg>
