<svg width="151" height="150" viewBox="0 0 151 150" fill="none" xmlns="http://www.w3.org/2000/svg">
<path id="Vector 4" d="M13.91 77.2953C22.6291 76.054 33.1238 76.2853 36.0884 77.2309C42.1122 78.825 49.6212 89.0749 44.2175 97.8246C37.0228 105.021 28.4179 102.374 21.1615 104.774C9.44934 108.648 -0.221575 120.485 5.15621 133.264C7.13112 137.958 10.3907 143.25 15.7037 144.49C21.9877 145.956 26.3887 140.769 29.2443 135.89C36.0016 124.345 37.609 102.323 53.7134 99.4864C58.3616 98.6677 63.3674 101.198 65.924 105.067C69.3479 110.249 68.7457 116.245 68.002 122.071C67.381 126.936 64.6818 138.426 71.0901 140.86C74.6263 142.204 79.1452 139.123 81.3997 136.631C88.6002 128.674 81.7162 112.784 79.6263 104.518C78.526 100.166 73.7624 88.1367 78.5163 84.2097C81.6862 81.591 86.4391 83.7297 89.365 85.5026C100.991 92.547 109.336 103.993 121.644 109.972C125.271 111.735 130.566 114.061 133.941 110.437C136.423 107.773 137.114 103.317 135.948 99.9479C134.032 94.4118 129.186 91.3465 124.389 88.5548C117.28 84.4173 109.865 80.825 102.576 77.0215C99.0221 75.1669 82.0613 67.8505 90.0077 62.6057C93.9494 60.004 99.0336 61.5072 103.176 62.7633C109.662 64.7304 115.682 68.0575 121.736 71.04C125.253 72.7723 129.292 75.1828 133.277 75.5985C138.004 76.0915 141.684 71.9542 143.483 68.034C148.129 57.9109 143.13 42.0744 135.349 34.8721C131.692 31.486 127.909 30.8926 124.822 35.3159C120.701 41.221 118.51 48.2328 113.679 53.7283C110.29 57.5842 105.338 59.6551 100.331 57.7963C95.8394 56.1288 95.7843 52.5843 98.7987 49.3604C102.764 45.1196 108.188 42.3291 109.645 36.2375C110.674 31.9327 109.625 28.0767 107.691 24.2267C105.288 19.4425 101.573 13.4998 95.4884 13.4538C90.6315 13.4172 88.0216 16.7216 87.6278 21.1988C87.0825 27.3989 88.622 33.4632 87.1992 39.6572C85.8024 45.7383 81.6914 48.859 75.8648 50.5431C71.8597 51.7007 64.4669 53.0793 62.8755 47.6729C61.6096 43.3724 62.7147 37.9187 62.9591 33.5253C63.3777 26.0034 63.5977 18.0541 58.4909 11.9053C55.2198 7.96673 49.8164 5.27853 44.643 5.69931C40.0036 6.07664 34.7508 9.56706 37.6366 14.7489C40.6591 20.1764 47.4556 23.5448 52.4518 26.8023C56.6543 29.5423 62.1644 33.7617 61.6207 39.4975C61.2564 43.3408 57.2746 45.8045 53.8926 46.6655C45.9755 48.681 39.0973 44.3201 32.3835 40.9058C28.3115 38.835 21.8406 35.6768 17.2378 37.6919C14.3336 38.9633 10.9772 41.5026 9.52453 44.3829C4.96212 53.4296 21.8008 54.788 26.5222 54.7071C34.6493 54.5678 44.6147 53.8157 50.5933 60.5614C53.291 63.6052 54.1709 68.4726 50.5547 71.2314C46.5125 74.3151 41.4804 73.1259 37.0798 71.7671C30.2034 69.6439 23.3137 66.3457 16.0834 65.6377C10.9854 65.1385 -0.397326 66.128 1.29883 74.0469C2.55691 79.9206 9.87835 77.8693 13.91 77.2953Z" fill="#FCFCF5" stroke="#FCFCF5" stroke-width="10" stroke-linecap="round"/>
</svg>
