<svg width="112" height="85" viewBox="0 0 112 85" fill="none" xmlns="http://www.w3.org/2000/svg">
<path d="M5 80C6.51305 78.8652 8.11536 77.8496 9.68365 76.7954C12.0065 75.234 16.4698 72.2434 18.7516 70.6151C20.0001 69.7242 21.601 69.0445 22.2908 67.6746C22.4185 67.4208 15.3916 64.5909 14.8779 64.2763C10.2672 61.4529 5.38241 56.4011 8.45111 50.7536C11.7584 44.6671 19.1878 41.1109 25.9708 42.7245C30.2566 43.7441 35.8617 46.8399 37.8824 50.9561C37.9013 50.9947 38.9021 53.4935 37.8296 52.3999C36.2308 50.7698 35.6376 47.7644 35.1444 45.6474C32.9578 36.2626 34.0983 26.3767 39.2646 18.1354C45.6556 7.94024 56.62 3.19727 68.4405 5.6251C78.4788 7.68687 84.9754 15.8344 87.5977 25.2929C89.8283 33.3388 89.2336 41.9495 83.4335 48.3766C82.2786 49.6563 80.9906 50.9451 79.3837 51.6428C78.261 52.1303 77.9013 51.4109 78.5121 50.4015C79.6311 48.5522 82.3704 47.3735 84.217 46.5102C88.053 44.7168 92.5109 43.8739 96.6745 44.9607C103.668 46.7861 107.207 54.13 105.848 60.8428C103.974 70.1005 96.2218 77.0149 87.1751 79.0492C77.2088 81.2902 67.0876 78.8347 59.1701 72.4639C57.2733 70.9377 55.3045 68.8248 54.7594 66.3717" stroke="#F2DA91" stroke-width="10" stroke-linecap="round"/>
</svg>
