<svg width="85" height="85" viewBox="0 0 85 85" fill="none" xmlns="http://www.w3.org/2000/svg">
<path id="Vector 3" d="M5 39.02C6.44436 37.6018 7.81857 36.5235 9.48505 35.2314C20.0301 27.0559 30.6273 18.914 41.4309 11.0855C43.8068 9.3639 46.1884 7.6437 48.6685 6.07744C51.5024 4.28778 51.1679 4.89732 49.98 6.6628C47.2139 10.774 43.5344 14.3646 40.2166 18.0122C33.8113 25.0542 27.5192 32.1662 21.4182 39.4753C19.7357 41.491 17.5201 43.6207 16.2693 45.9467C15.5276 47.326 15.2811 48.6196 17.6294 48.1581C20.8914 47.517 26.6535 44.4274 29.1254 42.9549C41.5688 35.542 52.1248 25.127 63.5485 16.2887C66.6611 13.8805 69.8531 11.2713 73.3606 9.44324C73.7624 9.23382 79.9246 6.45162 79.9991 8.43513C80.0621 10.1105 76.7811 13.0791 75.9188 14.0123C72.2925 17.9366 68.3391 21.5743 64.4229 25.1991C50.6647 37.9334 36.112 49.9472 23.1345 63.5074C20.014 66.7681 16.9456 70.1732 14.3749 73.8975C13.7424 74.8138 11.3372 77.9076 12.0271 79.4747C13.404 82.6022 30.6053 70.7825 31.9427 69.8651C40.9865 63.6612 49.8221 57.0814 58.3834 50.2231C62.1941 47.1704 65.9375 44.0252 69.7985 41.0362C70.3716 40.5925 75.6747 35.8916 76.858 36.7111C77.908 37.4383 75.0341 38.5058 74.0568 39.3289C71.0239 41.8835 68.2146 44.6557 65.4267 47.4752C62.2107 50.7277 59.0103 53.9961 55.7928 57.2474C53.9419 59.1176 50.3104 61.8931 49.6562 64.6619C49.2005 66.5904 59.1737 62.355 60.1321 61.979C63.9589 60.4778 64.1421 61.532 62.7066 64.7757" stroke="#F2DA91" stroke-width="10" stroke-linecap="round"/>
</svg>
