<svg width="242" height="241" viewBox="0 0 242 241" fill="none" xmlns="http://www.w3.org/2000/svg">
<path id="Vector 5" d="M67.1503 100.349C62.8338 101.62 26.884 98.1376 26.884 98.1376C26.884 98.1376 46.1365 117.486 52.5467 128.628C58.9568 139.771 40.5203 178.041 40.5203 178.041C40.5203 178.041 80.3805 155.873 83.8234 156.944C87.2663 158.014 134.159 214.568 134.159 214.568C134.159 214.568 137.184 164.68 140.371 159.571C143.557 154.462 213.864 134.792 213.864 134.792C213.864 134.792 148.556 102.429 149.006 98.6473C149.456 94.8661 180.522 30.4618 180.522 30.4618C180.522 30.4618 110.453 79.2515 96.2021 75.11C81.9509 70.9685 69.9523 56.781 69.9523 56.781C69.9523 56.781 71.4667 99.077 67.1503 100.349Z" fill="#F2DA91" stroke="#F2DA91" stroke-width="20" stroke-linecap="round"/>
</svg>
