<svg width="348" height="343" viewBox="0 0 348 343" fill="none" xmlns="http://www.w3.org/2000/svg">
<path d="M241.401 234.924C234.683 229.166 227.07 217.669 217.541 224.145C217.541 224.145 208.887 228.661 207.203 237.15C205.957 243.431 205.939 250.224 205.244 256.613C204.229 265.959 205.248 276.296 201.993 285.148C198.811 293.801 196.773 301.179 190.166 307.956C180.131 318.249 164.175 335.767 141.452 331.425C118.729 327.082 115.499 302.433 107.375 275.792C101.825 240.161 123.082 234.218 122.41 216.653C122.013 206.303 117.834 204.203 108.944 201.501C97.3069 197.963 65.9219 217.903 44.7639 210.619C23.6058 203.335 18.2113 186.543 13.2525 176.013C7.91209 164.673 10.3137 155.983 16.8179 145.479C23.5214 134.653 37.3796 128.671 49.8772 131.9C55.9023 133.456 61.7987 135.48 67.7809 137.189C73.4719 138.815 78.5251 141.954 84.1973 143.66C94.6794 146.811 107.209 145.382 113.854 135.904C121.593 124.865 108.476 114.39 100.326 108.063C82.6385 94.3309 54.6653 80.8028 53.603 55.0758C52.5156 28.7425 87.1333 15.0386 108.81 24.0782C127.298 31.7879 139.172 48.2253 145.419 66.6582C149.714 79.3328 160.739 105.232 178.57 95.1491C185.139 91.4349 183.63 81.5942 184.097 75.2697C184.612 68.2842 185.04 61.3079 185.662 54.3311C187.244 36.5626 190.767 15.1228 211.458 11.0565C230.796 7.25604 254.035 18.7587 265.139 34.6309C279.474 55.1206 275.5 78.3685 261.141 97.7103C252.789 108.961 238.379 118.197 233.829 131.79C228.354 148.149 239.988 164.346 255.286 169.753C266.702 173.788 279.82 174.714 291.724 176.893C300.884 178.569 308.946 182.072 316.927 186.842C335.131 197.723 342.554 219.164 332.85 238.696C326.508 251.462 311.234 258.31 297.538 259.485C276.92 261.253 256.31 247.704 241.401 234.924Z" fill="#F2DA91" stroke="#F2DA91" stroke-width="20" stroke-linecap="round"/>
</svg>
