<svg width="270" height="267" viewBox="0 0 270 267" fill="none" xmlns="http://www.w3.org/2000/svg">
<path id="Vector 6" d="M221.743 177.085C206.525 169.761 198.332 161.039 180.881 148.195C175.396 144.733 164.887 137.464 173.629 123.319C176.548 119.274 184.366 115.662 190.9 115.596C201.109 115.493 209.837 123.748 219.721 120.827C228.77 118.153 237.528 112.38 244.6 106.228C253.898 98.1388 261.207 83.8269 258.536 71.264C256.473 61.56 247.489 52.4356 238.466 48.648C218.811 40.3968 198.708 46.7967 185.839 63.0074C180.058 70.29 163.839 98.4994 151.433 86.8454C143.479 79.3734 141.862 65.3886 139.867 55.3399C137.442 43.1208 133.844 30.0324 124.809 20.9254C108.145 4.12703 79.241 8.7568 63.528 24.7745C55.9357 32.514 55.1732 43.957 58.2921 53.8079C62.6546 67.5865 72.3051 78.7076 82.0588 88.9366C87.895 95.0571 102.629 107.75 97.2648 117.979C94.0536 124.103 83.0428 127.315 76.9583 128.06C72.602 128.593 68.1417 127.908 63.7881 127.77C58.3431 127.597 53.671 127.6 48.1786 128.046C38.796 128.808 26.3498 129.413 18.3859 135.254C7.71831 143.078 9.35785 160.77 12.6466 171.738C16.8681 185.817 26.0468 198.233 39.475 204.416C52.1098 210.234 67.6652 212.176 80.54 205.85C93.0297 199.713 99.9695 187.321 107.583 176.343C111.322 170.951 116.861 163.681 124.2 163.655C137.206 163.609 145.746 177.989 149.472 188.528C153.85 200.908 158.103 212.886 164.969 224.183C178.482 246.416 208.099 267.847 233.747 250.416C239.601 246.436 243.683 238.696 245.9 232.174C248.141 225.583 247.638 218.286 246.626 211.521C245.537 204.232 243.874 195.857 239.131 189.942C234.71 184.428 228.047 180.12 221.743 177.085Z" fill="#F2DA91" stroke="#F2DA91" stroke-width="20" stroke-linecap="round"/>
</svg>
