<svg width="170" height="159" viewBox="0 0 170 159" fill="none" xmlns="http://www.w3.org/2000/svg">
<path id="Vector 4" d="M51.2043 48.1568C57.5839 54.1263 63.4589 56.4408 73.0447 62.45C75.7636 64.4468 81.2984 68.1534 87.0058 61.2698C88.5657 59.0992 89.0544 54.644 87.955 51.4767C86.2372 46.5278 80.5078 43.867 80.2855 38.5447C80.082 33.6717 81.5113 28.3561 83.4268 23.7837C85.9455 17.7714 91.987 11.5486 98.8659 10.4738C104.179 9.64355 110.397 12.2645 113.896 15.9082C121.518 23.8461 121.736 34.7577 115.689 44.0226C112.973 48.1848 101.379 61.3259 109.482 65.1229C114.677 67.5573 122.099 65.706 127.577 64.7777C134.238 63.649 141.546 62.9233 147.764 65.5716C159.232 70.4566 161.88 85.2847 156.425 95.8867C153.789 101.009 148.078 103.531 142.506 103.879C134.713 104.366 127.36 101.799 120.444 99.0148C116.307 97.3486 107.269 92.6232 102.976 97.1385C100.405 99.8417 100.674 105.763 101.349 108.841C101.832 111.045 102.956 113.07 103.781 115.146C104.813 117.743 105.622 119.999 106.347 122.735C107.585 127.409 109.434 133.533 107.832 138.478C105.687 145.101 96.3674 147.639 90.1956 148.116C82.2732 148.727 74.3411 146.632 68.8548 141.311C63.6926 136.306 60.0031 129.16 61.0011 121.752C61.9694 114.567 67.0941 108.883 71.3805 103.141C73.4857 100.321 76.2377 96.2777 74.9782 92.7289C72.7464 86.4405 63.9221 85.023 57.8931 85.2073C50.8117 85.4237 43.9574 85.6241 36.9971 84.435C23.2997 82.0948 7.21895 71.8269 11.6735 56.162C12.6904 52.5859 15.9355 49.1583 18.8816 46.8601C21.8592 44.5374 25.6726 43.4073 29.3032 42.6224C33.2148 41.7767 37.7797 41.0032 41.6231 42.18C45.2056 43.277 48.5615 45.6839 51.2043 48.1568Z" fill="#415B68" stroke="#415B68" stroke-width="20" stroke-linecap="round"/>
</svg>
