<svg width="214" height="209" viewBox="0 0 214 209" fill="none" xmlns="http://www.w3.org/2000/svg">
<path id="Vector 3" d="M35.0867 135.328C47.5495 130.368 54.5239 123.913 69.0622 114.704C73.5995 112.266 82.329 107.09 76.186 95.4003C74.0978 92.0339 68.1031 88.7395 62.9301 88.3254C54.8472 87.6784 47.4746 93.7344 39.8055 90.8729C32.7837 88.253 26.1643 83.1948 20.9024 77.9295C13.9836 71.0062 8.98571 59.2638 11.7979 49.4596C13.97 41.8865 21.5939 35.156 28.9522 32.6554C44.9823 27.2077 60.5554 33.3911 69.8533 46.9459C74.0303 53.0353 85.318 76.2807 95.793 67.7359C102.509 62.2573 104.565 51.2684 106.702 43.4184C109.3 33.873 112.877 23.7039 120.539 16.9899C134.673 4.6057 157.317 9.87446 168.879 23.4339C174.466 29.9855 174.436 39.0927 171.419 46.7237C167.199 57.3972 158.937 65.6726 150.642 73.2354C145.679 77.7607 133.302 86.9998 136.986 95.4003C139.191 100.43 147.737 103.583 152.516 104.511C155.938 105.175 159.51 104.879 162.967 105.011C167.291 105.176 170.992 105.436 175.319 106.094C182.711 107.218 192.538 108.386 198.525 113.454C206.543 120.244 204.264 134.168 201.051 142.674C196.926 153.594 188.966 162.921 177.984 167.075C167.651 170.984 155.219 171.661 145.368 165.936C135.813 160.383 131.001 150.182 125.577 141.063C122.913 136.585 118.927 130.519 113.114 130.092C102.812 129.335 95.2492 140.253 91.7126 148.396C87.5586 157.961 83.525 167.213 77.4589 175.783C65.5212 192.647 40.8677 207.983 21.5131 192.754C17.0947 189.277 14.2898 182.919 12.8943 177.63C11.4839 172.284 12.287 166.532 13.4633 161.228C14.7306 155.514 16.5115 148.972 20.5971 144.549C24.4053 140.426 29.9238 137.382 35.0867 135.328Z" fill="#F2DA91" stroke="#F2DA91" stroke-width="20" stroke-linecap="round"/>
</svg>
