<svg width="230" height="236" viewBox="0 0 230 236" fill="none" xmlns="http://www.w3.org/2000/svg">
<path id="Vector 5" d="M170.124 70.9905C159.923 79.7 155.4 88.058 144.602 101.458C141.092 105.228 134.495 112.941 144.076 122.028C147.137 124.543 153.874 125.731 158.904 124.456C166.765 122.465 171.794 114.357 179.976 114.596C187.467 114.815 195.363 117.471 202.041 120.761C210.821 125.086 219.335 134.593 219.83 144.781C220.213 152.65 215.164 161.477 209.003 166.215C195.582 176.536 178.847 175.698 165.679 165.86C159.763 161.441 141.589 143.07 134.425 154.534C129.832 161.884 131.425 172.949 131.93 181.069C132.545 190.943 132.435 201.722 127.343 210.546C117.952 226.823 94.8174 229.129 79.504 220.016C72.1048 215.613 69.1995 206.982 69.5977 198.786C70.1545 187.322 75.3109 176.826 80.7274 166.995C83.9684 161.112 92.7096 148.379 86.5169 141.612C82.8095 137.561 73.7031 137.328 68.8796 137.99C65.4262 138.464 62.14 139.894 58.8248 140.883C54.6784 142.119 51.0901 143.065 46.7819 143.836C39.4223 145.153 29.7421 147.213 22.4423 144.343C12.6644 140.498 10.3371 126.582 10.6391 117.494C11.0267 105.827 15.5584 94.4335 24.6167 86.9633C33.1399 79.9345 44.6914 75.2889 55.8607 77.5358C66.6958 79.7154 74.537 87.8224 82.6089 94.7082C86.5732 98.0899 92.3006 102.548 97.9419 101.08C107.938 98.4786 111.582 85.7065 112.307 76.8582C113.158 66.4653 113.997 56.4065 116.979 46.34C122.849 26.5295 141.248 4.06925 164.477 12.253C169.78 14.1213 174.483 19.2367 177.508 23.7946C180.565 28.4012 181.657 34.1053 182.252 39.5052C182.893 45.3229 183.314 52.0898 180.871 57.5933C178.594 62.7232 174.35 67.3825 170.124 70.9905Z" fill="#93B5C9" stroke="#93B5C9" stroke-width="20" stroke-linecap="round"/>
</svg>
