<svg width="78" height="81" viewBox="0 0 78 81" fill="none" xmlns="http://www.w3.org/2000/svg">
<path d="M23.1853 32.401C22.6841 31.99 22.1829 31.5791 21.3323 29.5181C20.4816 27.4572 19.2969 23.7587 18.846 21.237C18.1849 17.539 19.4073 15.3904 20.3014 13.5744C21.3864 11.3706 23.0845 9.48636 24.8976 8.15045C26.6201 6.88123 30.2498 7.62674 34.2728 9.05259C37.0439 10.0347 38.1855 12.0088 39.1728 13.4339C40.2788 15.0305 40.903 17.7177 41.3407 20.6649C41.6664 22.8575 41.1833 24.0963 40.9313 24.4657C40.8258 24.6204 40.5426 24.4699 40.4024 24.3087C40.2623 24.1475 40.2167 23.9192 40.3071 23.5961C40.5229 22.8255 41.1336 22.0734 42.0263 21.0405C43.5075 19.3267 45.9099 17.4672 48.3451 15.8546C51.6145 13.6894 55.2955 14.2281 58.2713 14.7567C61.0089 15.2429 63.2133 18.3154 65.2266 21.3435C66.2635 22.9032 66.4486 26.793 66.8408 31.2857C67.198 35.3777 64.7571 37.6477 62.5961 39.5883C59.3974 42.4607 56.6598 42.2691 55.5448 42.2262C55.3997 42.2207 55.6325 41.8153 56.0674 41.6285C58.3917 40.6304 60.7803 41.7599 62.9454 42.8198C64.1125 43.3911 65.2943 44.6158 66.6489 46.225C68.1256 47.9792 68.9342 50.7869 69.3947 53.7112C69.7292 55.8352 69.3526 57.3011 68.8955 58.7249C68.1941 60.9098 66.4141 62.6503 64.7157 63.8928C62.9981 65.1493 61.3036 65.8368 59.3338 66.3654C56.2198 67.2009 53.662 67.3616 52.4227 67.1783C49.5962 66.7601 47.7257 64.6012 46.2282 61.7025C44.2775 57.9265 45.0027 56.8943 45.0711 56.6618C45.1996 56.2247 45.417 57.6733 45.3714 58.2703C45.3043 59.1495 44.3206 61.4396 42.8955 64.366C42.0756 66.0499 40.0013 67.8085 37.221 70.1123C35.2832 71.7179 33.5942 72.1559 31.9896 72.5011C29.7777 72.977 27.5212 72.8505 25.5935 72.5752C23.4563 72.2699 21.9467 71.6523 21.0292 71.0559C18.5945 69.4736 17.8525 66.7293 17.2947 64.395C16.6453 61.6782 18.391 58.8425 20.2069 56.6701C21.9841 54.5439 24.2375 53.3438 25.0902 52.7904C25.9142 52.2556 20.8103 52.7876 17.5349 52.1899C16.26 51.9572 13.4959 50.4465 9.97617 48.4651C8.28253 47.5117 7.95185 46.5183 7.67568 45.4391C6.92589 42.5089 8.72512 39.8422 10.5195 37.3219C11.6206 35.7755 13.6478 34.7587 15.4851 33.7915C17.14 33.0983 18.9406 32.6334 20.6646 32.3567C21.3861 32.2626 21.7962 32.2626 22.633 32.5393" stroke="#A5FA97" stroke-width="15" stroke-linecap="round"/>
</svg>
