<svg width="171" height="171" viewBox="0 0 171 171" fill="none" xmlns="http://www.w3.org/2000/svg">
<path id="Vector 2" d="M10 78.0763C12.9025 75.2383 15.664 73.0805 19.0128 70.4951C40.2032 54.1354 61.4985 37.8429 83.2086 22.1775C87.9829 18.7325 92.7688 15.2902 97.7527 12.156C103.447 8.5748 102.775 9.79454 100.388 13.3274C94.8296 21.5541 87.4355 28.7392 80.7683 36.0383C67.8968 50.1298 55.2528 64.3613 42.9927 78.9873C39.6117 83.0208 35.1593 87.2826 32.6459 91.9371C31.1555 94.6971 30.6602 97.2857 35.379 96.3622C41.934 95.0793 53.5132 88.8969 58.4804 85.9503C83.4857 71.1166 104.698 50.2755 127.654 32.5894C133.909 27.7705 140.323 22.5492 147.372 18.8912C148.179 18.4721 160.562 12.9048 160.712 16.8739C160.839 20.2265 154.246 26.1668 152.513 28.0342C145.226 35.8871 137.281 43.1664 129.411 50.4197C101.764 75.9019 72.5201 99.9422 46.4416 127.077C40.1709 133.602 34.005 140.416 28.839 147.868C27.568 149.702 22.7347 155.893 24.1211 159.029C26.888 165.287 61.4544 141.635 64.1418 139.799C82.3155 127.385 100.071 114.218 117.275 100.494C124.933 94.3858 132.455 88.092 140.214 82.1109C141.366 81.223 152.022 71.8162 154.4 73.456C156.51 74.9112 150.735 77.0474 148.771 78.6945C142.676 83.8062 137.031 89.3536 131.429 94.9956C124.966 101.504 118.535 108.045 112.069 114.55C108.35 118.293 101.052 123.847 99.7375 129.387C98.8218 133.246 118.863 124.771 120.789 124.019C128.479 121.015 128.847 123.124 125.962 129.615" stroke="#93B5C9" stroke-width="20" stroke-linecap="round"/>
</svg>
