<svg width="97" height="44" viewBox="0 0 97 44" fill="none" xmlns="http://www.w3.org/2000/svg">
<path d="M37.3038 5.83112C36.584 5.66503 35.8643 5.49894 33.1406 5.33034C30.4169 5.16173 25.711 4.99564 22.3179 5.04849C18.9247 5.10133 16.987 5.37815 14.9646 5.9083C10.8293 6.9923 7.67589 8.84257 5.5553 10.8759C3.14119 13.1907 2.52205 16.4995 2.15883 19.0102C1.81405 21.3934 2.07075 23.7706 2.54386 26.0858C3.02056 28.4186 4.13765 30.1508 5.44457 31.7387C7.4457 34.1701 10.2276 35.5211 13.2039 36.8297C15.209 37.7113 18.3392 38.7473 21.7357 39.6222C25.1322 40.4971 28.7308 41.1061 34.2109 41.4752C39.6911 41.8443 46.9437 41.955 51.981 41.8736C57.0182 41.7922 59.6203 41.5154 61.1822 41.3728C62.7441 41.2302 63.187 41.2302 65.2976 40.9811C67.4081 40.7319 71.1728 40.2337 75.2714 39.1742C79.37 38.1148 83.6883 36.5092 86.2728 35.3776C91.1514 33.2416 92.6572 29.8388 93.8106 26.9808C94.4705 25.3457 94.2342 23.2337 93.8727 20.9756C93.4594 18.3943 92.5028 16.3519 91.3629 14.4863C89.587 11.5801 87.0286 9.41802 85.0489 7.91145C83.0119 6.36124 80.4336 5.22213 77.9221 4.161C76.7557 3.66818 75.7428 3.43204 73.3194 3.06798C70.896 2.70393 67.0759 2.26102 63.1426 2.08822C59.2092 1.91542 55.2784 2.02614 52.3677 2.16623C49.4569 2.30632 47.6853 2.47241 45.8599 2.64353" stroke="#092EFF" stroke-width="4" stroke-linecap="round"/>
</svg>
