<?xml version="1.0" encoding="UTF-8"?>
<svg id="Calque_1" data-name="Calque 1" xmlns="http://www.w3.org/2000/svg" viewBox="0 0 283.46 283.46">
  <defs>
    <style>
      .cls-1, .cls-2 {
        fill: none;
        stroke: #23F80B;
        stroke-miterlimit: 10;
        stroke-width: 10px;
      }

      .cls-2 {
        stroke-linecap: round;
      }
    </style>
  </defs>
  <path class="cls-2" d="M148.02,241.45c-29.83-35.91-51.63-78.46-63.35-123.65-4.84-18.65-7.85-39-.3-56.72,8.99-21.11,31.53-33.92,54.18-37.57,17.33-2.79,36.96-.3,49,12.47,5.04,5.34,8.36,12.08,10.84,18.99,7.16,19.95,7.77,41.78,4.92,62.79s-9.03,41.4-15.18,61.68"/>
  <path class="cls-1" d="M137.31,67.29c-5.9-.08-15.44,5.34-18.97,10.08-1.62,2.17-2.36,4.87-2.79,7.54-1.54,9.52.62,19.77,6.63,27.32s15.99,12.02,25.53,10.59c10.11-1.51,18.81-9.71,21.19-19.66s-1.54-21.05-9.45-27.52c-7.91-6.48-16.23-8.27-22.14-8.35Z"/>
</svg>
