<svg width="296" height="225" viewBox="0 0 296 225" fill="none" xmlns="http://www.w3.org/2000/svg">
<path d="M10 214.742C14.1252 211.648 18.4938 208.879 22.7697 206.004C29.1028 201.747 41.2716 193.594 47.4928 189.154C50.8967 186.725 55.2615 184.872 57.1421 181.137C57.4904 180.445 38.332 172.73 36.9315 171.872C24.3606 164.174 11.0426 150.401 19.4092 135.003C28.4263 118.409 48.6821 108.713 67.1753 113.113C78.8604 115.892 94.1422 124.333 99.6515 135.555C99.7031 135.661 102.432 142.474 99.5075 139.492C95.1486 135.048 93.5314 126.854 92.1865 121.082C86.225 95.4945 89.3346 68.5416 103.42 46.072C120.845 18.2757 150.738 5.34431 182.966 11.9636C210.335 17.5849 228.047 39.7985 235.197 65.5865C241.279 87.5231 239.657 110.999 223.843 128.523C220.695 132.012 217.183 135.525 212.802 137.428C209.741 138.757 208.76 136.795 210.426 134.043C213.476 129.001 220.945 125.788 225.98 123.434C236.438 118.545 248.592 116.246 259.944 119.209C279.011 124.186 288.66 144.209 284.955 162.511C279.846 187.751 258.71 206.603 234.045 212.149C206.872 218.259 179.277 211.565 157.691 194.195C152.52 190.034 147.152 184.273 145.665 177.585" stroke="#415B68" stroke-width="20" stroke-linecap="round"/>
</svg>
