<svg width="317" height="227" viewBox="0 0 317 227" fill="none" xmlns="http://www.w3.org/2000/svg">
<path d="M11.6909 125.216C13.4143 124.533 15.4915 123.213 17.3404 121.892C28.1636 114.162 38.8874 106.06 48.8767 97.2717C55.3984 91.5338 61.1844 85.9413 64.8138 78.0323C67.1599 72.9199 69.0203 67.4682 69.9346 61.9065C71.4031 52.975 71.0226 43.1037 69.2013 34.1776C68.2001 32.6456 67.332 30.9314 67.332 29.4855C67.332 28.2669 68.6381 31.5959 68.9037 32.7851C69.0068 33.2465 69.106 33.7108 69.2013 34.1776C69.9237 35.2832 70.7155 36.2939 71.3005 37.0407L71.3205 37.0662C77.2802 44.6741 86.1095 51.5576 94.8121 55.6795C108.535 62.179 124.723 60.2073 138.432 55.0534C155.179 48.7576 170.435 37.9222 181.004 23.3939C184.587 18.4688 188.918 11.5099 189.184 5.11899C189.209 4.51992 189.115 6.34915 189.319 6.91264C191.233 12.1817 192.079 18.1342 193.578 23.5631C201.974 53.954 235.395 73.931 265.473 75.2403L266.077 75.2667C272.922 75.5661 279.793 75.8665 286.54 74.594C287.166 74.4025 287.808 74.338 287.376 74.4281C287.098 74.4862 286.819 74.5414 286.54 74.594C286.23 74.689 285.923 74.8154 285.753 74.9696C282.047 78.3429 279.401 82.5556 277.692 87.2713C273.158 99.7796 270.246 112.794 270.746 126.156C271.784 153.924 286.069 182.374 303.178 203.841C304.454 205.442 305.936 206.971 306.98 208.748C307.177 209.083 305.836 207.459 305.527 207.158C301.22 202.953 295.484 198.947 290.283 196.024C282.224 191.496 274.191 187.197 265.236 184.737C247.593 179.89 230.773 178.073 212.541 180.828C189.236 184.35 167.058 190.893 146.342 202.285C145.399 202.803 131.314 211.461 126.885 215.204C126.703 216.452 126.315 217.392 125.622 216.837C125.378 216.642 125.886 216.048 126.885 215.204C127.043 214.118 127.045 212.8 126.957 212.031C126.072 204.318 124.109 197.856 119.639 191.472C113.802 183.136 106.279 176.446 98.9696 169.457C91.1833 162.013 82.6019 154.197 73.6189 148.238C58.9245 138.491 43.8069 131.284 26.3484 128.542C23.0651 128.026 4.35522 129.89 11.6909 125.216Z" fill="#93B5C9" stroke="#93B5C9" stroke-width="20" stroke-linecap="round"/>
</svg>
