<svg width="103" height="108" viewBox="0 0 103 108" fill="none" xmlns="http://www.w3.org/2000/svg">
<path d="M72.5212 42.5874C73.2246 42.0083 73.9279 41.4292 75.1215 38.5252C76.3151 35.6211 77.9776 30.4096 78.6102 26.8563C79.538 21.6455 77.8226 18.6179 76.568 16.059C75.0455 12.9536 72.6626 10.2986 70.1185 8.41619C67.7014 6.62773 62.6082 7.67823 56.9629 9.68738C53.0744 11.0713 51.4726 13.8529 50.0872 15.8611C48.5351 18.1108 47.6593 21.8973 47.0451 26.0501C46.5881 29.1397 47.266 30.8853 47.6196 31.4059C47.7677 31.6238 48.1651 31.4118 48.3617 31.1846C48.5584 30.9575 48.6223 30.6358 48.4954 30.1805C48.1927 29.0947 47.3358 28.0349 46.0831 26.5795C44.0046 24.1646 40.6335 21.5444 37.2164 19.272C32.6286 16.2211 27.4633 16.9802 23.2877 17.725C19.4462 18.4102 16.3529 22.7396 13.5278 27.0064C12.0728 29.2041 11.813 34.6853 11.2627 41.0159C10.7615 46.7819 14.1866 49.9806 17.219 52.715C21.7075 56.7624 25.5489 56.4925 27.1136 56.4321C27.3172 56.4242 26.9906 55.853 26.3802 55.5898C23.1187 54.1834 19.767 55.775 16.7288 57.2685C15.0911 58.0735 13.4329 59.7992 11.5321 62.0667C9.45992 64.5385 8.32527 68.4948 7.67906 72.6154C7.20971 75.6083 7.73817 77.6739 8.37952 79.6801C9.36374 82.7589 11.8615 85.2114 14.2448 86.9622C16.6549 88.7327 19.0327 89.7015 21.7967 90.4463C26.1663 91.6237 29.7556 91.8501 31.4946 91.5917C35.4608 91.0025 38.0855 87.9604 40.1868 83.8758C42.9241 78.5552 41.9065 77.1007 41.8106 76.7731C41.6302 76.1571 41.3252 78.1984 41.3891 79.0396C41.4833 80.2784 42.8637 83.5054 44.8633 87.629C46.014 90.0018 48.9246 92.4798 52.8261 95.726C55.5452 97.9885 57.9153 98.6057 60.1668 99.0922C63.2706 99.7627 66.437 99.5845 69.1419 99.1965C72.141 98.7663 74.2593 97.896 75.5468 97.0557C78.9632 94.826 80.0043 90.959 80.7872 87.6699C81.6983 83.8417 79.2487 79.8458 76.7007 76.7848C74.2068 73.7888 71.0447 72.0978 69.8482 71.3179C68.692 70.5643 75.8539 71.314 80.45 70.4717C82.239 70.1439 86.1176 68.0151 91.0566 65.2232C93.4332 63.8798 93.8972 62.48 94.2847 60.9592C95.3369 56.8304 92.8121 53.0728 90.2942 49.5214C88.7492 47.3424 85.9045 45.9096 83.3264 44.5468C81.0042 43.57 78.4775 42.9149 76.0584 42.525C75.0459 42.3924 74.4705 42.3924 73.2963 42.7823" stroke="#E09AF8" stroke-width="15" stroke-linecap="round"/>
</svg>
