<svg width="220" height="134" viewBox="0 0 220 134" fill="none" xmlns="http://www.w3.org/2000/svg">
<path d="M21.4134 123.243C24.3673 123.243 26.7405 123.069 29.6412 122.215C45.8433 117.441 62.1277 112.169 76.5039 103.165C81.1557 100.252 88.2623 97.3714 91.9758 93.1937C92.5383 92.5609 77.2359 91.7825 75.1624 91.6733C54.7053 90.5966 34.6457 87.0152 14.6613 82.6854C14.5645 82.6644 8.02545 81.0886 11.3075 80.5837C20.5919 79.1554 29.8647 77.801 39.1211 76.1568C73.9645 69.9675 107.465 59.0632 139.822 44.7212C162.799 34.5373 184.069 21.2886 206.897 10.8263C209.992 9.40743 210.625 10.4468 209.222 13.5092C204.848 23.0523 198.144 32.1174 192.945 41.2333C177.523 68.2759 161.655 96.6964 142.952 121.633" stroke="#93B5C9" stroke-width="20" stroke-linecap="round"/>
<path d="M118.777 81.3197C124.713 77.6148 130.601 73.8452 136.492 70.0721" stroke="#93B5C9" stroke-width="20" stroke-linecap="round"/>
</svg>
