<svg width="338" height="88" viewBox="0 0 338 88" fill="none" xmlns="http://www.w3.org/2000/svg">
<path d="M327.812 33.2897C313.261 29.5589 298.826 25.4073 284.26 21.7266C263.894 16.5806 242.097 9.52614 220.767 10.0251C211.52 10.2414 200.289 10.6399 192.447 16.222C184.099 22.1648 188.154 29.1501 195.494 33.4974C211.89 43.2087 232.53 44.3288 250.955 46.3761C258.594 47.2248 291.833 50.4671 289.107 64.3093C286.872 75.6519 266.754 77.3907 258.433 77.3264C232.298 77.1243 210.963 63.9168 189.47 50.669C162.094 33.7947 133.211 19.7465 101.12 14.6642C83.4784 11.8703 64.3051 11.9358 47.5973 18.9917C34.1347 24.6771 22.145 33.4269 10 41.3908" stroke="#93B5C9" stroke-width="20" stroke-linecap="round"/>
</svg>
