<?xml version="1.0" encoding="UTF-8"?>
<svg id="Layer_1" xmlns="http://www.w3.org/2000/svg" version="1.1" viewBox="0 0 132.92 90.56">
  <!-- Generator: Adobe Illustrator 29.4.0, SVG Export Plug-In . SVG Version: 2.1.0 Build 152)  -->
  <defs>
    <style>
      .st0 {
        fill: #f2da91;
      }

      .st1 {
        fill: #94b5c9;
      }
    </style>
  </defs>
  <path class="st1" d="M127.52,0h-3.8c0,2.98-2.42,5.4-5.4,5.4-.03,0-.07,0-.1-.01-.03,0-.07.01-.1.01-2.98,0-5.4-2.42-5.4-5.4h-3.8c0,2.98-2.42,5.4-5.4,5.4-.03,0-.07,0-.1-.01-.03,0-.07.01-.1.01-2.98,0-5.4-2.42-5.4-5.4h-3.8c0,2.98-2.42,5.4-5.4,5.4-.03,0-.07,0-.1-.01-.03,0-.07.01-.1.01-2.98,0-5.4-2.42-5.4-5.4h-3.8c0,2.98-2.42,5.4-5.4,5.4-.03,0-.07,0-.1-.01-.03,0-.07.01-.1.01-2.98,0-5.4-2.42-5.4-5.4h-3.8c0,2.98-2.42,5.4-5.4,5.4-.03,0-.07,0-.1-.01-.03,0-.07.01-.1.01-2.98,0-5.4-2.42-5.4-5.4h-3.8c0,2.98-2.42,5.4-5.4,5.4-.03,0-.07,0-.1-.01-.03,0-.07.01-.1.01-2.98,0-5.4-2.42-5.4-5.4h-3.8c0,2.98-2.42,5.4-5.4,5.4-.03,0-.07,0-.1-.01-.03,0-.07.01-.1.01-2.98,0-5.4-2.42-5.4-5.4h-3.8c0,2.98-2.42,5.4-5.4,5.4-.03,0-.07,0-.1-.01-.03,0-.07.01-.1.01-2.98,0-5.4-2.42-5.4-5.4h-3.8c0,2.98-2.42,5.4-5.4,5.4v4c2.98,0,5.4,2.42,5.4,5.4s-2.42,5.4-5.4,5.4v4c2.98,0,5.4,2.42,5.4,5.4s-2.42,5.4-5.4,5.4v4c2.98,0,5.4,2.42,5.4,5.4s-2.42,5.4-5.4,5.4v4c2.98,0,5.4,2.42,5.4,5.4s-2.42,5.4-5.4,5.4v4c2.98,0,5.4,2.42,5.4,5.4s-2.42,5.4-5.4,5.4v4c2.98,0,5.4,2.42,5.4,5.4,0,.64-.13,1.24-.33,1.81h4.47c-.2-.57-.33-1.17-.33-1.81,0-2.98,2.42-5.4,5.4-5.4.03,0,.07,0,.1.01.03,0,.07-.01.1-.01,2.98,0,5.4,2.42,5.4,5.4,0,.64-.13,1.24-.33,1.81h4.47c-.2-.57-.33-1.17-.33-1.81,0-2.98,2.42-5.4,5.4-5.4.03,0,.07,0,.1.01.03,0,.07-.01.1-.01,2.98,0,5.4,2.42,5.4,5.4,0,.64-.13,1.24-.33,1.81h4.47c-.2-.57-.33-1.17-.33-1.81,0-2.98,2.42-5.4,5.4-5.4.03,0,.07,0,.1.01.03,0,.07-.01.1-.01,2.98,0,5.4,2.42,5.4,5.4,0,.64-.13,1.24-.33,1.81h4.47c-.2-.57-.33-1.17-.33-1.81,0-2.98,2.42-5.4,5.4-5.4.03,0,.07,0,.1.01.03,0,.07-.01.1-.01,2.98,0,5.4,2.42,5.4,5.4,0,.64-.13,1.24-.33,1.81h4.47c-.2-.57-.33-1.17-.33-1.81,0-2.98,2.42-5.4,5.4-5.4.03,0,.07,0,.1.01.03,0,.07-.01.1-.01,2.98,0,5.4,2.42,5.4,5.4,0,.64-.13,1.24-.33,1.81h4.47c-.2-.57-.33-1.17-.33-1.81,0-2.98,2.42-5.4,5.4-5.4.03,0,.07,0,.1.01.03,0,.07-.01.1-.01,2.98,0,5.4,2.42,5.4,5.4,0,.64-.13,1.24-.33,1.81h4.47c-.2-.57-.33-1.17-.33-1.81,0-2.98,2.42-5.4,5.4-5.4.03,0,.07,0,.1.01.03,0,.07-.01.1-.01,2.98,0,5.4,2.42,5.4,5.4,0,.64-.13,1.24-.33,1.81h4.47c-.2-.57-.33-1.17-.33-1.81,0-2.98,2.42-5.4,5.4-5.4.03,0,.07,0,.1.01.03,0,.07-.01.1-.01,2.98,0,5.4,2.42,5.4,5.4,0,.64-.13,1.24-.33,1.81h4.47c-.2-.57-.33-1.17-.33-1.81,0-2.98,2.42-5.4,5.4-5.4v-4c-2.98,0-5.4-2.42-5.4-5.4s2.42-5.4,5.4-5.4v-4c-2.98,0-5.4-2.42-5.4-5.4s2.42-5.4,5.4-5.4v-4c-2.98,0-5.4-2.42-5.4-5.4s2.42-5.4,5.4-5.4v-4c-2.98,0-5.4-2.42-5.4-5.4s2.42-5.4,5.4-5.4v-4c-2.98,0-5.4-2.42-5.4-5.4s2.42-5.4,5.4-5.4v-4c-2.98,0-5.4-2.42-5.4-5.4Z"/>
  <g>
    <path class="st0" d="M61.68,20.15h25.71c13.25,0,20.09,5.54,20.09,15.7,0,6.77-3.02,11.74-11.38,15.34l9.43,19.37h-18.36l-8.57-20.81v20.81h-16.92V20.15ZM82.85,44.2c5.26-1.3,7.34-2.81,7.34-5.62,0-3.31-1.87-4.75-6.19-4.75h-5.4v11.45l4.25-1.08Z"/>
    <rect class="st0" x="23.32" y="36.97" width="32.55" height="11"/>
  </g>
</svg>