<?xml version="1.0" encoding="UTF-8"?>
<svg id="Layer_1" xmlns="http://www.w3.org/2000/svg" version="1.1" viewBox="0 0 237.98 90.56">
  <!-- Generator: Adobe Illustrator 29.4.0, SVG Export Plug-In . SVG Version: 2.1.0 Build 152)  -->
  <defs>
    <style>
      .st0 {
        fill: #f2da91;
      }

      .st1 {
        fill: #94b5c9;
      }
    </style>
  </defs>
  <path class="st0" d="M0,5.4v4c2.98,0,5.4,2.42,5.4,5.4s-2.42,5.4-5.4,5.4v4c2.98,0,5.4,2.42,5.4,5.4s-2.42,5.4-5.4,5.4v4c2.98,0,5.4,2.42,5.4,5.4s-2.42,5.4-5.4,5.4v4c2.98,0,5.4,2.42,5.4,5.4s-2.42,5.4-5.4,5.4v4c2.98,0,5.4,2.42,5.4,5.4s-2.42,5.4-5.4,5.4v4c2.98,0,5.4,2.42,5.4,5.4,0,.64-.13,1.24-.33,1.81h4.67c-.2-.57-.33-1.17-.33-1.81,0-2.98,2.42-5.4,5.4-5.4s5.4,2.42,5.4,5.4c0,.64-.13,1.24-.33,1.81h4.67c-.2-.57-.33-1.17-.33-1.81,0-2.98,2.42-5.4,5.4-5.4s5.4,2.42,5.4,5.4c0,.64-.13,1.24-.33,1.81h4.67c-.2-.57-.33-1.17-.33-1.81,0-2.98,2.42-5.4,5.4-5.4s5.4,2.42,5.4,5.4c0,.64-.13,1.24-.33,1.81h4.67c-.2-.57-.33-1.17-.33-1.81,0-2.98,2.42-5.4,5.4-5.4s5.4,2.42,5.4,5.4c0,.64-.13,1.24-.33,1.81h4.67c-.2-.57-.33-1.17-.33-1.81,0-2.98,2.42-5.4,5.4-5.4s5.4,2.42,5.4,5.4c0,.64-.13,1.24-.33,1.81h4.67c-.2-.57-.33-1.17-.33-1.81,0-2.98,2.42-5.4,5.4-5.4s5.4,2.42,5.4,5.4c0,.64-.13,1.24-.33,1.81h4.67c-.2-.57-.33-1.17-.33-1.81,0-2.98,2.42-5.4,5.4-5.4s5.4,2.42,5.4,5.4c0,.64-.13,1.24-.33,1.81h4.67c-.2-.57-.33-1.17-.33-1.81,0-2.98,2.42-5.4,5.4-5.4s5.4,2.42,5.4,5.4c0,.64-.13,1.24-.33,1.81h4.67c-.2-.57-.33-1.17-.33-1.81,0-2.98,2.42-5.4,5.4-5.4s5.4,2.42,5.4,5.4c0,.64-.13,1.24-.33,1.81h4.67c-.2-.57-.33-1.17-.33-1.81,0-2.98,2.42-5.4,5.4-5.4s5.4,2.42,5.4,5.4c0,.64-.13,1.24-.33,1.81h4.67c-.2-.57-.33-1.17-.33-1.81,0-2.98,2.42-5.4,5.4-5.4s5.4,2.42,5.4,5.4c0,.64-.13,1.24-.33,1.81h4.67c-.2-.57-.33-1.17-.33-1.81,0-2.98,2.42-5.4,5.4-5.4s5.4,2.42,5.4,5.4c0,.64-.13,1.24-.33,1.81h4.67c-.2-.57-.33-1.17-.33-1.81,0-2.98,2.42-5.4,5.4-5.4s5.4,2.42,5.4,5.4c0,.64-.13,1.24-.33,1.81h4.67c-.2-.57-.33-1.17-.33-1.81,0-2.98,2.42-5.4,5.4-5.4s5.4,2.42,5.4,5.4c0,.64-.13,1.24-.33,1.81h4.67c-.2-.57-.33-1.17-.33-1.81,0-2.98,2.42-5.4,5.4-5.4s5.4,2.42,5.4,5.4c0,.64-.13,1.24-.33,1.81h4.67c-.2-.57-.33-1.17-.33-1.81,0-2.98,2.42-5.4,5.4-5.4.46,0,.9.07,1.32.18v-4.36c-.42.11-.86.18-1.32.18-2.98,0-5.4-2.42-5.4-5.4s2.42-5.4,5.4-5.4c.46,0,.9.07,1.32.18v-4.36c-.42.11-.86.18-1.32.18-2.98,0-5.4-2.42-5.4-5.4s2.42-5.4,5.4-5.4c.46,0,.9.07,1.32.18v-4.36c-.42.11-.86.18-1.32.18-2.98,0-5.4-2.42-5.4-5.4s2.42-5.4,5.4-5.4c.46,0,.9.07,1.32.18v-4.36c-.42.11-.86.18-1.32.18-2.98,0-5.4-2.42-5.4-5.4s2.42-5.4,5.4-5.4c.46,0,.9.07,1.32.18v-4.36c-.42.11-.86.18-1.32.18-2.98,0-5.4-2.42-5.4-5.4s2.42-5.4,5.4-5.4c.46,0,.9.07,1.32.18v-4.36c-.42.11-.86.18-1.32.18-2.98,0-5.4-2.42-5.4-5.4h-4c0,2.98-2.42,5.4-5.4,5.4s-5.4-2.42-5.4-5.4h-4c0,2.98-2.42,5.4-5.4,5.4s-5.4-2.42-5.4-5.4h-4c0,2.98-2.42,5.4-5.4,5.4s-5.4-2.42-5.4-5.4h-4c0,2.98-2.42,5.4-5.4,5.4s-5.4-2.42-5.4-5.4h-4c0,2.98-2.42,5.4-5.4,5.4s-5.4-2.42-5.4-5.4h-4c0,2.98-2.42,5.4-5.4,5.4s-5.4-2.42-5.4-5.4h-4c0,2.98-2.42,5.4-5.4,5.4s-5.4-2.42-5.4-5.4h-4c0,2.98-2.42,5.4-5.4,5.4s-5.4-2.42-5.4-5.4h-4c0,2.98-2.42,5.4-5.4,5.4s-5.4-2.42-5.4-5.4h-4c0,2.98-2.42,5.4-5.4,5.4s-5.4-2.42-5.4-5.4h-4c0,2.98-2.42,5.4-5.4,5.4s-5.4-2.42-5.4-5.4h-4c0,2.98-2.42,5.4-5.4,5.4s-5.4-2.42-5.4-5.4h-4c0,2.98-2.42,5.4-5.4,5.4s-5.4-2.42-5.4-5.4h-4c0,2.98-2.42,5.4-5.4,5.4s-5.4-2.42-5.4-5.4h-4c0,2.98-2.42,5.4-5.4,5.4S9.4,2.98,9.4,0h-4c0,2.98-2.42,5.4-5.4,5.4Z"/>
  <g>
    <g>
      <path class="st1" d="M61.05,22.96h25.71c13.25,0,20.09,5.54,20.09,15.7,0,6.77-3.02,11.74-11.38,15.34l9.43,19.37h-18.36l-8.57-20.81v20.81h-16.92V22.96ZM82.22,47.01c5.26-1.3,7.34-2.81,7.34-5.62,0-3.31-1.87-4.75-6.19-4.75h-5.4v11.45l4.25-1.08Z"/>
      <path class="st1" d="M109.94,23.75c0-4.39,3.1-7.99,8.42-7.99s8.5,3.6,8.5,7.99-3.17,7.99-8.5,7.99-8.42-3.53-8.42-7.99ZM118.36,35.34c3.02,0,6.05-.72,8.28-2.09v40.11h-16.56v-40.11c2.3,1.37,5.26,2.09,8.28,2.09Z"/>
      <path class="st1" d="M139.24,35.77c5.98,0,8.5-3.46,16.78-3.46,10.66,0,15.84,5.62,15.84,16.2v24.84h-16.56v-21.96c0-3.31-1.66-4.61-3.89-4.61s-3.89,1.3-3.89,4.61v21.96h-16.56v-40.11c3.24,1.87,5.69,2.52,8.28,2.52Z"/>
      <path class="st1" d="M175.1,52.84c0-12.31,8.57-20.52,21.53-20.52,11.74,0,18.65,6.84,18.65,18.51l-20.02,8.42c1.66,1.22,3.96,1.94,6.7,1.94,4.39,0,8.06-1.8,9.72-4.82v16.85c-2.88,1.01-7.2,1.58-11.3,1.58-15.48,0-25.27-8.5-25.27-21.96ZM193.32,49.82c3.89-.36,5.54-1.51,5.54-3.82,0-1.94-1.3-3.31-3.24-3.31-2.38,0-3.89,2.09-3.89,5.33v1.94l1.58-.14Z"/>
    </g>
    <rect class="st1" x="22.7" y="39.78" width="32.55" height="11"/>
  </g>
</svg>