<svg width="196" height="39" viewBox="0 0 196 39" fill="none" xmlns="http://www.w3.org/2000/svg">
<path d="M25.92 29.28L1.46627e-05 20.64V12.96L25.92 4.31997V12.096L10.368 16.8L25.92 21.504V29.28ZM30.705 33.6V-2.67029e-05H47.841C56.673 -2.67029e-05 61.233 3.69597 61.233 10.464C61.233 14.976 59.217 18.288 53.649 20.688L59.937 33.6H47.697L41.985 19.728V33.6H30.705ZM41.985 16.752L44.817 16.032C48.321 15.168 49.713 14.16 49.713 12.288C49.713 10.08 48.465 9.11997 45.585 9.11997H41.985V16.752ZM63.3769 33.6V-2.67029e-05H74.7529V33.6H63.3769ZM77.6269 33.6V-2.67029e-05H87.0829L96.8269 11.328V-2.67029e-05H107.627V33.6H97.3069C97.3069 27.552 95.1949 23.232 88.4269 16.56V33.6H77.6269ZM117.014 33.6C112.022 33.6 110.486 31.488 110.486 26.4V-2.67029e-05H134.39V11.616C132.854 9.88797 130.694 9.11997 125.27 9.11997H121.766V12.72H130.55V20.88H121.766V24.48H125.27C130.694 24.48 132.854 23.712 134.39 21.984V33.6H117.014ZM145.667 38.16L157.139 -2.67029e-05H165.683L154.211 38.16H145.667ZM169.5 29.28V21.504L185.052 16.8L169.5 12.096V4.31997L195.42 12.96V20.64L169.5 29.28Z" fill="#FCFCF5"/>
</svg>
