<svg width="196" height="39" viewBox="0 0 196 39" fill="none" xmlns="http://www.w3.org/2000/svg">
<path d="M25.92 29.2801L1.46627e-05 20.6401V12.9601L25.92 4.3201V12.0961L10.368 16.8001L25.92 21.5041V29.2801ZM30.705 33.6001V9.53674e-05H47.841C56.673 9.53674e-05 61.233 3.6961 61.233 10.4641C61.233 14.9761 59.217 18.2881 53.649 20.6881L59.937 33.6001H47.697L41.985 19.7281V33.6001H30.705ZM41.985 16.7521L44.817 16.0321C48.321 15.1681 49.713 14.1601 49.713 12.2881C49.713 10.0801 48.465 9.1201 45.585 9.1201H41.985V16.7521ZM63.3769 33.6001V9.53674e-05H74.7529V33.6001H63.3769ZM77.6269 33.6001V9.53674e-05H87.0829L96.8269 11.3281V9.53674e-05H107.627V33.6001H97.3069C97.3069 27.5521 95.1949 23.2321 88.4269 16.5601V33.6001H77.6269ZM117.014 33.6001C112.022 33.6001 110.486 31.4881 110.486 26.4001V9.53674e-05H134.39V11.6161C132.854 9.8881 130.694 9.1201 125.27 9.1201H121.766V12.7201H130.55V20.8801H121.766V24.4801H125.27C130.694 24.4801 132.854 23.7121 134.39 21.9841V33.6001H117.014ZM145.667 38.1601L157.139 9.53674e-05H165.683L154.211 38.1601H145.667ZM169.5 29.2801V21.5041L185.052 16.8001L169.5 12.0961V4.3201L195.42 12.9601V20.6401L169.5 29.2801Z" fill="#1E1E1E"/>
</svg>
